<svg id="Layer_1" data-name="Layer 1" xmlns="http://www.w3.org/2000/svg" xmlns:xlink="http://www.w3.org/1999/xlink" viewBox="0 0 2000 2000"><defs><style>.cls-1{fill:url(#linear-gradient);}.cls-2{fill:url(#linear-gradient-2);}.cls-3{fill:url(#linear-gradient-3);}.cls-4{fill:url(#linear-gradient-4);}.cls-5{fill:url(#linear-gradient-5);}.cls-6{fill:url(#linear-gradient-6);}.cls-7{fill:url(#linear-gradient-7);}.cls-8{fill:url(#linear-gradient-8);}.cls-9{fill:url(#linear-gradient-9);}.cls-10{fill:url(#linear-gradient-10);}.cls-11{fill:url(#linear-gradient-11);}.cls-12{fill:url(#linear-gradient-12);}.cls-13{fill:url(#linear-gradient-13);}.cls-14{fill:url(#linear-gradient-14);}.cls-15{fill:url(#linear-gradient-15);}.cls-16{fill:url(#linear-gradient-16);}.cls-17{fill:url(#linear-gradient-17);}.cls-18{fill:url(#linear-gradient-18);}.cls-19{fill:url(#linear-gradient-19);}.cls-20{fill:url(#linear-gradient-20);}.cls-21{fill:url(#linear-gradient-21);}.cls-22{fill:url(#linear-gradient-22);}.cls-23{fill:url(#linear-gradient-23);}.cls-24{fill:url(#linear-gradient-24);}.cls-25{fill:url(#linear-gradient-25);}.cls-26{fill:url(#linear-gradient-26);}.cls-27{fill:url(#linear-gradient-27);}.cls-28{fill:url(#linear-gradient-28);}.cls-29{fill:url(#linear-gradient-29);}.cls-30{fill:url(#linear-gradient-30);}.cls-31{fill:url(#linear-gradient-31);}.cls-32{fill:url(#linear-gradient-32);}.cls-33{fill:url(#linear-gradient-33);}.cls-34{fill:url(#linear-gradient-34);}.cls-35{fill:url(#linear-gradient-35);}.cls-36{fill:url(#linear-gradient-36);}.cls-37{fill:url(#linear-gradient-37);}.cls-38{fill:url(#linear-gradient-38);}.cls-39{fill:url(#linear-gradient-39);}.cls-40{fill:url(#linear-gradient-40);}.cls-41{fill:url(#linear-gradient-41);}.cls-42{fill:url(#linear-gradient-42);}.cls-43{fill:url(#linear-gradient-43);}.cls-44{fill:url(#linear-gradient-44);}.cls-45{fill:url(#linear-gradient-45);}.cls-46{fill:none;clip-rule:evenodd;}.cls-47{clip-path:url(#clip-path);}.cls-48{fill:url(#linear-gradient-46);}.cls-49{mask:url(#mask);}.cls-50{fill:#fef7a2;}.cls-123,.cls-127,.cls-129,.cls-50,.cls-52,.cls-54{fill-rule:evenodd;}.cls-51{mask:url(#mask-2);}.cls-52{fill:#c40015;}.cls-53{mask:url(#mask-3);}.cls-54{fill:#9b0109;}.cls-55{clip-path:url(#clip-path-2);}.cls-56{fill:url(#linear-gradient-47);}.cls-57{mask:url(#mask-4);}.cls-58{mask:url(#mask-5);}.cls-59{clip-path:url(#clip-path-3);}.cls-60{fill:url(#linear-gradient-48);}.cls-61{mask:url(#mask-6);}.cls-62{mask:url(#mask-7);}.cls-63{mask:url(#mask-8);}.cls-64{clip-path:url(#clip-path-4);}.cls-65{fill:url(#linear-gradient-49);}.cls-66{mask:url(#mask-9);}.cls-67{mask:url(#mask-10);}.cls-68{clip-path:url(#clip-path-5);}.cls-69{fill:url(#linear-gradient-50);}.cls-70{mask:url(#mask-11);}.cls-71{mask:url(#mask-12);}.cls-72{mask:url(#mask-13);}.cls-73{clip-path:url(#clip-path-6);}.cls-74{fill:url(#linear-gradient-51);}.cls-75{mask:url(#mask-14);}.cls-76{mask:url(#mask-15);}.cls-77{clip-path:url(#clip-path-7);}.cls-78{fill:url(#linear-gradient-52);}.cls-79{mask:url(#mask-16);}.cls-80{mask:url(#mask-17);}.cls-81{mask:url(#mask-18);}.cls-82{clip-path:url(#clip-path-8);}.cls-83{fill:url(#linear-gradient-53);}.cls-84{mask:url(#mask-19);}.cls-85{mask:url(#mask-20);}.cls-86{clip-path:url(#clip-path-9);}.cls-87{fill:url(#linear-gradient-54);}.cls-88{mask:url(#mask-21);}.cls-89{mask:url(#mask-22);}.cls-90{mask:url(#mask-23);}.cls-91{clip-path:url(#clip-path-10);}.cls-92{fill:url(#linear-gradient-55);}.cls-93{mask:url(#mask-24);}.cls-94{mask:url(#mask-25);}.cls-95{clip-path:url(#clip-path-11);}.cls-96{fill:url(#linear-gradient-56);}.cls-97{mask:url(#mask-26);}.cls-98{mask:url(#mask-27);}.cls-99{mask:url(#mask-28);}.cls-100{clip-path:url(#clip-path-12);}.cls-101{fill:url(#linear-gradient-57);}.cls-102{mask:url(#mask-29);}.cls-103{mask:url(#mask-30);}.cls-104{clip-path:url(#clip-path-13);}.cls-105{fill:url(#linear-gradient-58);}.cls-106{mask:url(#mask-31);}.cls-107{mask:url(#mask-32);}.cls-108{mask:url(#mask-33);}.cls-109{clip-path:url(#clip-path-14);}.cls-110{fill:url(#linear-gradient-59);}.cls-111{mask:url(#mask-34);}.cls-112{mask:url(#mask-35);}.cls-113{clip-path:url(#clip-path-15);}.cls-114{fill:url(#linear-gradient-60);}.cls-115{mask:url(#mask-36);}.cls-116{mask:url(#mask-37);}.cls-117{mask:url(#mask-38);}.cls-118{clip-path:url(#clip-path-16);}.cls-119{fill:url(#linear-gradient-61);}.cls-120{mask:url(#mask-39);}.cls-121{mask:url(#mask-40);}.cls-122{mask:url(#mask-41);}.cls-123{fill:#740107;}.cls-124{clip-path:url(#clip-path-17);}.cls-125{fill:url(#linear-gradient-62);}.cls-126{mask:url(#mask-42);}.cls-127{fill:#1e003d;}.cls-128{mask:url(#mask-43);}.cls-129{fill:#ff8cc8;}.cls-130{clip-path:url(#clip-path-18);}.cls-131{fill:url(#linear-gradient-63);}.cls-132{mask:url(#mask-44);}.cls-133{mask:url(#mask-45);}</style><linearGradient id="linear-gradient" x1="681.62" y1="2739.26" x2="1402.55" y2="1651.06" gradientTransform="translate(239.82 -223.3)" gradientUnits="userSpaceOnUse"><stop offset="0" stop-color="#fff"/><stop offset="1"/></linearGradient><linearGradient id="linear-gradient-2" x1="1824.26" y1="1029.39" x2="1000.93" y2="2163.2" gradientTransform="translate(239.82 -223.5)" xlink:href="#linear-gradient"/><linearGradient id="linear-gradient-3" x1="-116.98" y1="2454.18" x2="1259.19" y2="1629.14" gradientTransform="translate(209.44 -231.73)" xlink:href="#linear-gradient"/><linearGradient id="linear-gradient-4" x1="2045.39" y1="1148.59" x2="531.54" y2="1969.9" gradientTransform="translate(209.44 -235.63)" xlink:href="#linear-gradient"/><linearGradient id="linear-gradient-5" x1="1517.53" y1="1952.61" x2="868.16" y2="1674.68" gradientTransform="translate(225.55 -241.18)" xlink:href="#linear-gradient"/><linearGradient id="linear-gradient-6" x1="-186.35" y1="2568.94" x2="1483.53" y2="1483.89" gradientTransform="translate(229.08 -242.66)" xlink:href="#linear-gradient"/><linearGradient id="linear-gradient-7" x1="2167.92" y1="1122.76" x2="866.04" y2="1781.88" gradientTransform="translate(229.08 -245.56)" xlink:href="#linear-gradient"/><linearGradient id="linear-gradient-8" x1="-505.76" y1="2162.5" x2="1184.2" y2="1607.65" gradientTransform="translate(194.99 -240.17)" xlink:href="#linear-gradient"/><linearGradient id="linear-gradient-9" x1="2149.21" y1="1272.47" x2="311.11" y2="1789.76" gradientTransform="translate(194.99 -245.6)" xlink:href="#linear-gradient"/><linearGradient id="linear-gradient-10" x1="1367.8" y1="2005.24" x2="733.78" y2="1545.61" gradientTransform="translate(214.37 -247.17)" xlink:href="#linear-gradient"/><linearGradient id="linear-gradient-11" x1="-609.53" y1="2264.77" x2="1461.76" y2="1500.67" gradientTransform="translate(218.63 -248.06)" xlink:href="#linear-gradient"/><linearGradient id="linear-gradient-12" x1="2285.4" y1="1267.7" x2="716.34" y2="1661.37" gradientTransform="translate(218.63 -252.75)" xlink:href="#linear-gradient"/><linearGradient id="linear-gradient-13" x1="1719.76" y1="1807.63" x2="1145.55" y2="1831.15" gradientTransform="translate(248.82 -234.98)" xlink:href="#linear-gradient"/><linearGradient id="linear-gradient-14" x1="-864.38" y1="1728.06" x2="1099.07" y2="1542.06" gradientTransform="translate(182.5 -251.66)" xlink:href="#linear-gradient"/><linearGradient id="linear-gradient-15" x1="2226.19" y1="1443.47" x2="112.02" y2="1552.61" gradientTransform="translate(182.5 -258.26)" xlink:href="#linear-gradient"/><linearGradient id="linear-gradient-16" x1="1186.18" y1="2025.73" x2="613.25" y2="1373.49" gradientTransform="translate(204.63 -255.3)" xlink:href="#linear-gradient"/><linearGradient id="linear-gradient-17" x1="-1003.11" y1="1803.93" x2="1423.69" y2="1484.98" gradientTransform="translate(209.49 -255.56)" xlink:href="#linear-gradient"/><linearGradient id="linear-gradient-18" x1="2373.88" y1="1461.06" x2="580.81" y2="1502.5" gradientTransform="translate(209.49 -261.86)" xlink:href="#linear-gradient"/><linearGradient id="linear-gradient-19" x1="-1138.55" y1="1077.27" x2="1029.97" y2="1357.21" gradientTransform="translate(173.26 -264.77)" xlink:href="#linear-gradient"/><linearGradient id="linear-gradient-20" x1="2272.23" y1="1564.51" x2="-40.56" y2="1164.53" gradientTransform="translate(173.26 -268.05)" xlink:href="#linear-gradient"/><linearGradient id="linear-gradient-21" x1="1001.45" y1="1988.82" x2="541.67" y2="1143.27" gradientTransform="translate(197.28 -265.45)" xlink:href="#linear-gradient"/><linearGradient id="linear-gradient-22" x1="-1311.51" y1="1159.17" x2="1390.79" y2="1408.85" gradientTransform="translate(202.55 -264.77)" xlink:href="#linear-gradient"/><linearGradient id="linear-gradient-23" x1="2455.28" y1="1640.51" x2="472.76" y2="1262.9" gradientTransform="translate(202.55 -267)" xlink:href="#linear-gradient"/><linearGradient id="linear-gradient-24" x1="674.03" y1="2849.62" x2="1519.44" y2="1467.57" gradientTransform="translate(250.8 -237.19)" xlink:href="#linear-gradient"/><linearGradient id="linear-gradient-25" x1="-1287.63" y1="386.84" x2="988.59" y2="1220.63" gradientTransform="translate(168.62 -266.93)" xlink:href="#linear-gradient"/><linearGradient id="linear-gradient-26" x1="2281.15" y1="1750.61" x2="-121.56" y2="751.61" gradientTransform="translate(168.62 -270.42)" xlink:href="#linear-gradient"/><linearGradient id="linear-gradient-27" x1="815.18" y1="1911.4" x2="525.34" y2="884.43" gradientTransform="translate(193.36 -277.4)" xlink:href="#linear-gradient"/><linearGradient id="linear-gradient-28" x1="-1494.18" y1="442.61" x2="1366.45" y2="1374.64" gradientTransform="translate(198.76 -266.93)" xlink:href="#linear-gradient"/><linearGradient id="linear-gradient-29" x1="2460.89" y1="1857.63" x2="403.52" y2="1010.07" gradientTransform="translate(198.8 -267.84)" xlink:href="#linear-gradient"/><linearGradient id="linear-gradient-30" x1="-1281.98" y1="-388.6" x2="975.02" y2="1070.61" gradientTransform="translate(169.62 -269.41)" xlink:href="#linear-gradient"/><linearGradient id="linear-gradient-31" x1="-509.67" y1="-472.12" x2="776.3" y2="939.77" gradientTransform="translate(169.94 -272.49)" xlink:href="#linear-gradient"/><linearGradient id="linear-gradient-32" x1="641.41" y1="1794.85" x2="579.45" y2="613.28" gradientTransform="translate(193.82 -291.22)" xlink:href="#linear-gradient"/><linearGradient id="linear-gradient-33" x1="-1519.27" y1="-364.8" x2="1345.51" y2="1343.65" gradientTransform="translate(198.45 -269.41)" xlink:href="#linear-gradient"/><linearGradient id="linear-gradient-34" x1="-254.34" y1="-101.73" x2="1188.23" y2="1323.93" gradientTransform="translate(199.2 -272.49)" xlink:href="#linear-gradient"/><linearGradient id="linear-gradient-35" x1="1905.56" y1="967.74" x2="1180.91" y2="1908.09" gradientTransform="translate(250.8 -237.58)" xlink:href="#linear-gradient"/><linearGradient id="linear-gradient-36" x1="-1271.67" y1="-1317.45" x2="1956.8" y2="2236.99" gradientTransform="translate(211.06 -237.92)" xlink:href="#linear-gradient"/><linearGradient id="linear-gradient-37" x1="2204.35" y1="2164.37" x2="785.73" y2="1040.03" gradientTransform="translate(228.38 -244.99)" xlink:href="#linear-gradient"/><linearGradient id="linear-gradient-38" x1="641.75" y1="872.93" x2="1630.14" y2="1783.58" gradientTransform="translate(229.14 -241.56)" xlink:href="#linear-gradient"/><linearGradient id="linear-gradient-39" x1="345.98" y1="312.93" x2="1595.39" y2="1852.31" gradientTransform="translate(211.06 -245.38)" xlink:href="#linear-gradient"/><linearGradient id="linear-gradient-40" x1="535.63" y1="348.67" x2="1477.84" y2="1813.47" gradientTransform="translate(211.06 -246)" xlink:href="#linear-gradient"/><linearGradient id="linear-gradient-41" x1="284.44" y1="2644.12" x2="1330.62" y2="1644.12" gradientTransform="translate(224.71 -226.24)" xlink:href="#linear-gradient"/><linearGradient id="linear-gradient-42" x1="1933.67" y1="1071.2" x2="765.72" y2="2095.45" gradientTransform="translate(224.71 -228.08)" xlink:href="#linear-gradient"/><linearGradient id="linear-gradient-43" x1="1633.34" y1="1883.04" x2="1006.77" y2="1767.89" gradientTransform="translate(237.28 -237.21)" xlink:href="#linear-gradient"/><linearGradient id="linear-gradient-44" x1="248.52" y1="2761.17" x2="1501.21" y2="1473.91" gradientTransform="translate(240.04 -239.09)" xlink:href="#linear-gradient"/><linearGradient id="linear-gradient-45" x1="2037.26" y1="1024.88" x2="1023.48" y2="1864.12" gradientTransform="translate(240.04 -240.48)" xlink:href="#linear-gradient"/><clipPath id="clip-path"><path class="cls-46" d="M1294,1829.46c213.09,21.64,267.44-88.39,297.88-147.76l123.62-241.09-52.24-84.72Z"/></clipPath><linearGradient id="linear-gradient-46" x1="2088.29" y1="1965.84" x2="-2468.46" y2="-863.37" gradientUnits="userSpaceOnUse"><stop offset="0" stop-color="#ff2966"/><stop offset="1" stop-color="#ff0"/></linearGradient><mask id="mask" x="1293.95" y="1438.87" width="421.5" height="393.37" maskUnits="userSpaceOnUse"><rect class="cls-1" x="1293.95" y="1438.87" width="421.5" height="393.37"/></mask><mask id="mask-2" x="1293.95" y="1355.89" width="397.58" height="473.56" maskUnits="userSpaceOnUse"><rect class="cls-2" x="1293.95" y="1355.89" width="397.58" height="473.56"/></mask><mask id="mask-3" x="1423.12" y="1515.67" width="232.16" height="149.13" maskUnits="userSpaceOnUse"><rect class="cls-13" x="1423.12" y="1515.67" width="232.16" height="149.13"/></mask><clipPath id="clip-path-2"><path class="cls-46" d="M1652.83,1562.73l62.62-122.11-52.24-84.73-211.73,271.54c55.59,18.14,161.76-8.45,201.35-64.7"/></clipPath><linearGradient id="linear-gradient-47" x1="2053.9" y1="1682.25" x2="-317.69" y2="767.15" xlink:href="#linear-gradient-46"/><mask id="mask-4" x="1451.48" y="1438.35" width="263.97" height="194.73" maskUnits="userSpaceOnUse"><rect class="cls-24" x="1451.48" y="1438.35" width="263.97" height="194.73"/></mask><mask id="mask-5" x="1451.48" y="1355.89" width="236.09" height="271.53" maskUnits="userSpaceOnUse"><rect class="cls-35" x="1451.48" y="1355.89" width="236.09" height="271.53"/></mask><clipPath id="clip-path-3"><path class="cls-46" d="M1077.25,1763.78c225.11,75.61,310.82-30.06,358.28-86.8l245-292.93-46.68-75.71Z"/></clipPath><linearGradient id="linear-gradient-48" x1="2195.53" y1="2080.89" x2="-2361.21" y2="-748.32" xlink:href="#linear-gradient-46"/><mask id="mask-6" x="1077.25" y="1382.92" width="603.32" height="407.18" maskUnits="userSpaceOnUse"><rect class="cls-41" x="1077.25" y="1382.92" width="603.32" height="407.18"/></mask><mask id="mask-7" x="1077.25" y="1308.34" width="581.94" height="455.44" maskUnits="userSpaceOnUse"><rect class="cls-42" x="1077.25" y="1308.34" width="581.94" height="455.44"/></mask><mask id="mask-8" x="1257.49" y="1484.42" width="276.95" height="148.36" maskUnits="userSpaceOnUse"><rect class="cls-43" x="1257.49" y="1484.42" width="276.95" height="148.36"/></mask><clipPath id="clip-path-4"><path class="cls-46" d="M1530.63,1563.29l149.94-179.24-46.68-75.71-336.82,275.58c55.66,33.23,177,30.48,233.56-20.63"/></clipPath><linearGradient id="linear-gradient-49" x1="2056.72" y1="1681.87" x2="-314.87" y2="766.77" xlink:href="#linear-gradient-46"/><mask id="mask-9" x="1297.07" y="1382.58" width="383.5" height="223.27" maskUnits="userSpaceOnUse"><rect class="cls-44" x="1297.07" y="1382.58" width="383.5" height="223.27"/></mask><mask id="mask-10" x="1297.07" y="1308.34" width="359.28" height="277.62" maskUnits="userSpaceOnUse"><rect class="cls-45" x="1297.07" y="1308.34" width="359.28" height="277.62"/></mask><clipPath id="clip-path-5"><path class="cls-46" d="M858.25,1640c224.89,136.9,343.46,43.64,408.68-6.09L1653.1,1339.5l-45.36-73.57Z"/></clipPath><linearGradient id="linear-gradient-50" x1="2182" y1="2096.56" x2="-2374.74" y2="-732.65" xlink:href="#linear-gradient-46"/><mask id="mask-11" x="858.25" y="1338.75" width="794.84" height="372.65" maskUnits="userSpaceOnUse"><rect class="cls-3" x="858.25" y="1338.75" width="794.84" height="372.65"/></mask><mask id="mask-12" x="858.25" y="1265.93" width="774.04" height="389.47" maskUnits="userSpaceOnUse"><rect class="cls-4" x="858.25" y="1265.93" width="774.04" height="389.47"/></mask><mask id="mask-13" x="1089.28" y="1421.59" width="313.57" height="154.23" maskUnits="userSpaceOnUse"><rect class="cls-5" x="1089.28" y="1421.59" width="313.57" height="154.23"/></mask><clipPath id="clip-path-6"><path class="cls-46" d="M1397.61,1534.29,1653.1,1339.5l-45.36-73.57L1140,1499.38c52,49.57,183.89,76.32,257.6,34.91"/></clipPath><linearGradient id="linear-gradient-51" x1="2057.15" y1="1675.71" x2="-314.44" y2="760.61" xlink:href="#linear-gradient-46"/><mask id="mask-14" x="1140.01" y="1338.53" width="513.1" height="216.15" maskUnits="userSpaceOnUse"><rect class="cls-6" x="1140.01" y="1338.53" width="513.1" height="216.15"/></mask><mask id="mask-15" x="1140.01" y="1265.93" width="490.19" height="247.16" maskUnits="userSpaceOnUse"><rect class="cls-7" x="1140.01" y="1265.93" width="490.19" height="247.16"/></mask><clipPath id="clip-path-7"><path class="cls-46" d="M651,1453c209.62,203.12,360.67,131.32,443.37,93.53l535.52-244.69-47.44-76.92Z"/></clipPath><linearGradient id="linear-gradient-52" x1="2322.21" y1="2174.3" x2="-2234.39" y2="-654.91" xlink:href="#linear-gradient-46"/><mask id="mask-16" x="651.01" y="1301.39" width="978.89" height="288.93" maskUnits="userSpaceOnUse"><rect class="cls-8" x="651.01" y="1301.39" width="978.89" height="288.93"/></mask><mask id="mask-17" x="651.01" y="1224.94" width="957.15" height="287.51" maskUnits="userSpaceOnUse"><rect class="cls-9" x="651.01" y="1224.94" width="957.15" height="287.51"/></mask><mask id="mask-18" x="929.04" y="1324.05" width="337.69" height="165.86" maskUnits="userSpaceOnUse"><rect class="cls-10" x="929.04" y="1324.05" width="337.69" height="165.86"/></mask><clipPath id="clip-path-8"><path class="cls-46" d="M1260.1,1470.83l369.8-169-47.44-76.92L990.1,1370c44.14,66.34,180.15,127.57,270,100.84"/></clipPath><linearGradient id="linear-gradient-53" x1="2040.89" y1="1643.22" x2="-330.7" y2="728.26" xlink:href="#linear-gradient-46"/><mask id="mask-19" x="990.1" y="1301.25" width="639.79" height="176" maskUnits="userSpaceOnUse"><rect class="cls-11" x="990.1" y="1301.25" width="639.79" height="176"/></mask><mask id="mask-20" x="990.1" y="1224.93" width="616.47" height="185.04" maskUnits="userSpaceOnUse"><rect class="cls-12" x="990.1" y="1224.93" width="616.47" height="185.04"/></mask><clipPath id="clip-path-9"><path class="cls-46" d="M471.94,1200.82c176.92,271,357.83,230.35,456.51,209.75l680.83-142.14L1556,1182Z"/></clipPath><linearGradient id="linear-gradient-54" x1="2370.29" y1="2152.46" x2="-2186.31" y2="-676.61" xlink:href="#linear-gradient-46"/><mask id="mask-21" x="471.94" y="1200.82" width="1137.34" height="224.81" maskUnits="userSpaceOnUse"><rect class="cls-14" x="471.94" y="1200.82" width="1137.34" height="224.81"/></mask><mask id="mask-22" x="471.94" y="1182.01" width="1113.07" height="148.9" maskUnits="userSpaceOnUse"><rect class="cls-15" x="471.94" y="1182.01" width="1113.07" height="148.9"/></mask><mask id="mask-23" x="789.26" y="1190.39" width="344.83" height="183.03" maskUnits="userSpaceOnUse"><rect class="cls-16" x="789.26" y="1190.39" width="344.83" height="183.03"/></mask><clipPath id="clip-path-10"><path class="cls-46" d="M1126.18,1369.29l483.1-100.86L1556,1182l-697,12.1c31.47,82.54,163.53,182.06,267.23,175.18"/></clipPath><linearGradient id="linear-gradient-55" x1="2043.17" y1="1591.2" x2="-328.56" y2="676.24" xlink:href="#linear-gradient-46"/><mask id="mask-24" x="858.95" y="1194.11" width="750.33" height="175.52" maskUnits="userSpaceOnUse"><rect class="cls-17" x="858.95" y="1194.11" width="750.33" height="175.52"/></mask><mask id="mask-25" x="858.95" y="1182.01" width="724.89" height="97.36" maskUnits="userSpaceOnUse"><rect class="cls-18" x="858.95" y="1182.01" width="724.89" height="97.36"/></mask><clipPath id="clip-path-11"><path class="cls-46" d="M339.41,885.26C464.33,1221.6,669.89,1222,781.64,1223.88l803,13.63,1.45-6.69-60.69-98.43Z"/></clipPath><linearGradient id="linear-gradient-56" x1="2481.41" y1="2004.25" x2="-2075.34" y2="-824.82" xlink:href="#linear-gradient-46"/><mask id="mask-26" x="339.41" y="885.26" width="1246.67" height="352.25" maskUnits="userSpaceOnUse"><rect class="cls-19" x="339.41" y="885.26" width="1246.67" height="352.25"/></mask><mask id="mask-27" x="339.41" y="885.26" width="1221.81" height="305.23" maskUnits="userSpaceOnUse"><rect class="cls-20" x="339.41" y="885.26" width="1221.81" height="305.23"/></mask><mask id="mask-28" x="683.87" y="957.04" width="343.55" height="270.8" maskUnits="userSpaceOnUse"><rect class="cls-21" x="683.87" y="957.04" width="343.55" height="270.8"/></mask><clipPath id="clip-path-12"><path class="cls-46" d="M1005.55,1227.68l579.09,9.83,1.45-6.69-60.69-98.43L759.52,972.8c13.81,97,132.22,236.93,246,254.88"/></clipPath><linearGradient id="linear-gradient-57" x1="2109.05" y1="1466.42" x2="-262.55" y2="551.31" xlink:href="#linear-gradient-46"/><mask id="mask-29" x="759.52" y="972.8" width="825.13" height="264.71" maskUnits="userSpaceOnUse"><rect class="cls-22" x="759.52" y="972.8" width="825.13" height="264.71"/></mask><mask id="mask-30" x="759.52" y="972.8" width="810.98" height="232.74" maskUnits="userSpaceOnUse"><rect class="cls-23" x="759.52" y="972.8" width="810.98" height="232.74"/></mask><clipPath id="clip-path-13"><path class="cls-46" d="M272.86,520.6c52.68,394.27,274.86,445,395.23,474.47L1533,1206.52l16.38-35.21L1491,1076.67Z"/></clipPath><linearGradient id="linear-gradient-58" x1="2593.54" y1="1908.14" x2="-1963.2" y2="-921.07" xlink:href="#linear-gradient-46"/><mask id="mask-31" x="272.86" y="520.6" width="1276.53" height="685.92" maskUnits="userSpaceOnUse"><rect class="cls-25" x="272.86" y="520.6" width="1276.53" height="685.92"/></mask><mask id="mask-32" x="272.86" y="520.6" width="1267.41" height="635.92" maskUnits="userSpaceOnUse"><rect class="cls-26" x="272.86" y="520.6" width="1267.41" height="635.92"/></mask><mask id="mask-33" x="627.73" y="682.58" width="330.09" height="373.81" maskUnits="userSpaceOnUse"><rect class="cls-27" x="627.73" y="682.59" width="330.09" height="373.81"/></mask><clipPath id="clip-path-14"><path class="cls-46" d="M909.26,1054,1533,1206.52l16.38-35.21L1491,1076.67,705.67,718.16C696.85,826.39,790.6,1006.73,909.26,1054"/></clipPath><linearGradient id="linear-gradient-59" x1="2173.88" y1="1367.7" x2="-197.85" y2="452.74" xlink:href="#linear-gradient-46"/><mask id="mask-34" x="705.09" y="718.16" width="827.93" height="488.36" maskUnits="userSpaceOnUse"><rect class="cls-28" x="705.09" y="718.16" width="827.93" height="488.36"/></mask><mask id="mask-35" x="705.67" y="718.16" width="830.48" height="475.43" maskUnits="userSpaceOnUse"><rect class="cls-29" x="705.67" y="718.16" width="830.48" height="475.43"/></mask><clipPath id="clip-path-15"><path class="cls-46" d="M291.79,120.6C252.16,559.82,480,669.15,602.91,730.45L1486.34,1171l35-45.22-79.64-129.17Z"/></clipPath><linearGradient id="linear-gradient-60" x1="2903.71" y1="1898.03" x2="-1653.03" y2="-931.04" xlink:href="#linear-gradient-46"/><mask id="mask-36" x="287.22" y="120.6" width="1234.08" height="1050.37" maskUnits="userSpaceOnUse"><rect class="cls-30" x="287.22" y="120.6" width="1234.08" height="1050.37"/></mask><mask id="mask-37" x="291.79" y="120.6" width="1229.52" height="1006.21" maskUnits="userSpaceOnUse"><rect class="cls-31" x="291.79" y="120.6" width="1229.52" height="1006.21"/></mask><mask id="mask-38" x="634.35" y="382.69" width="309.15" height="475.52" maskUnits="userSpaceOnUse"><rect class="cls-32" x="634.35" y="382.69" width="309.15" height="475.52"/></mask><clipPath id="clip-path-16"><path class="cls-46" d="M849.25,853.29,1486.34,1171l35-45.22-79.64-129.17L711.38,440.25c-36,114.86,21.15,332.83,137.87,413"/></clipPath><linearGradient id="linear-gradient-61" x1="2303.46" y1="1270.62" x2="-68.14" y2="355.52" xlink:href="#linear-gradient-46"/><mask id="mask-39" x="700.67" y="440.25" width="785.68" height="730.72" maskUnits="userSpaceOnUse"><rect class="cls-33" x="700.67" y="440.25" width="785.68" height="730.72"/></mask><mask id="mask-40" x="711.38" y="440.25" width="809.93" height="686.56" maskUnits="userSpaceOnUse"><rect class="cls-34" x="711.38" y="440.25" width="809.93" height="686.56"/></mask><mask id="mask-41" x="881.48" y="569.83" width="932.63" height="1052.76" maskUnits="userSpaceOnUse"><rect class="cls-36" x="881.48" y="569.83" width="932.63" height="1052.76"/></mask><clipPath id="clip-path-17"><path class="cls-46" d="M1815.54,1506.69C1477,1720.93,1338.05,1348,1326.87,1078.25l-197-282.49L1379,975l207,397.65Z"/></clipPath><linearGradient id="linear-gradient-62" x1="2073.99" y1="1999.75" x2="1164.47" y2="878.27" gradientUnits="userSpaceOnUse"><stop offset="0" stop-color="#5e17a9"/><stop offset="1" stop-color="#ff2966"/></linearGradient><mask id="mask-42" x="1129.88" y="795.76" width="685.66" height="725.51" maskUnits="userSpaceOnUse"><rect class="cls-37" x="1129.88" y="795.76" width="685.66" height="725.51"/></mask><mask id="mask-43" x="1140.75" y="811.35" width="674.79" height="759.04" maskUnits="userSpaceOnUse"><rect class="cls-38" x="1140.75" y="811.35" width="674.79" height="759.04"/></mask><clipPath id="clip-path-18"><path class="cls-46" d="M1815.54,1506.69c-115.2-90.58-219.31-235.54-292.37-491.5L881.48,569.83,1392.63,1046c40.87,204.61,125.22,527.33,422.91,460.71"/></clipPath><linearGradient id="linear-gradient-63" x1="2078.34" y1="2086.38" x2="826.64" y2="345.93" xlink:href="#linear-gradient-46"/><mask id="mask-44" x="881.48" y="569.83" width="934.06" height="945.76" maskUnits="userSpaceOnUse"><rect class="cls-39" x="881.48" y="569.83" width="934.06" height="945.76"/></mask><mask id="mask-45" x="881.48" y="569.83" width="934.06" height="936.91" maskUnits="userSpaceOnUse"><rect class="cls-40" x="881.48" y="569.83" width="934.06" height="936.91"/></mask></defs><g class="cls-47"><rect class="cls-48" x="1293.95" y="1355.89" width="421.5" height="495.21"/></g><g class="cls-49"><path class="cls-50" d="M1294,1829.46c213.09,21.64,267.44-88.39,297.88-147.76l123.62-241.09-1.08-1.74-126.15,241c-9,17.53-17.88,34.49-29.14,50.72-13.93,20.09-30.33,37.66-50.09,52.12-25.1,18.38-53.57,30.25-83.79,37.22-40.07,9.25-90.69,12.18-131.25,9.56"/></g><g class="cls-51"><path class="cls-52" d="M1663.21,1355.89,1294,1829.46c86-20.83,164.49-54.7,214-129.71,40.82-61.89,119.72-191.69,183.6-297.91Z"/></g><g class="cls-53"><path class="cls-54" d="M1655.28,1558c-12.69-8.17-26.89-17.18-37.11-25.8-12.52-10.54-42.71-15.28-79.54-16.5l-115.51,148.14h0c91.75,6.81,188.49-20.68,232.16-105.84"/></g><g class="cls-55"><rect class="cls-56" x="1451.48" y="1355.89" width="263.97" height="289.67"/></g><g class="cls-57"><path class="cls-50" d="M1652.83,1562.73l62.62-122.11-1.4-2.27-64.47,122.41c-35.67,50.37-133.34,80.73-198.1,66.67,55.59,18.14,161.76-8.45,201.35-64.7"/></g><g class="cls-58"><path class="cls-52" d="M1663.21,1355.89l-211.73,271.54s87.26-.78,149.3-97.45c23.23-36.19,55.51-86.19,86.79-134.58Z"/></g><g class="cls-59"><rect class="cls-60" x="1077.25" y="1308.34" width="603.32" height="531.05"/></g><g class="cls-61"><path class="cls-50" d="M1077.25,1763.78c225.11,75.61,310.82-30.06,358.28-86.8l245-292.93-.7-1.13-247.78,291.17c-14,16.75-27.8,32.91-43.94,47.71-20,18.3-42,33.29-66.93,44.08-31.64,13.72-65.33,19.58-99.72,19.72-45.6.18-101-9-144.25-21.82"/></g><g class="cls-62"><path class="cls-52" d="M1633.89,1308.34l-556.64,455.44c98.06-1.46,191.25-18.84,263.13-87.84,69.64-66.84,219-222.06,318.81-326.57Z"/></g><g class="cls-63"><path class="cls-54" d="M1534.44,1558.73c-11.71-11.94-24.85-25.15-33.8-37-11-14.47-42.43-27-82-37.34l-161.19,131.89c97.54,29.85,208.87,23.81,277-57.58"/></g><g class="cls-64"><rect class="cls-65" x="1297.07" y="1308.34" width="383.5" height="308.81"/></g><g class="cls-66"><path class="cls-50" d="M1530.63,1563.29l149.94-179.24-.91-1.47L1527.6,1560.36c-50.9,45.73-163.95,54.62-230.53,23.56,55.66,33.23,177,30.48,233.56-20.63"/></g><g class="cls-67"><path class="cls-52" d="M1633.89,1308.34l-336.82,275.58s94.54,20.53,185.31-68.79c46-45.25,116-113.76,174-170.35Z"/></g><g class="cls-68"><rect class="cls-69" x="858.25" y="1265.93" width="794.84" height="510.98"/></g><g class="cls-70"><path class="cls-50" d="M858.25,1640c224.89,136.9,343.46,43.64,408.68-6.09L1653.1,1339.5l-.46-.75L1263.91,1630c-19.25,14.68-38.12,28.78-59.2,40.82-26.08,14.9-53.58,25.7-83.16,31.28-37.58,7.07-75.44,5.16-112.66-3.12-49.35-11-107-34.53-150.64-58.93"/></g><g class="cls-71"><path class="cls-52" d="M1607.74,1265.93,858.25,1640c106.4,22.45,211.43,26.48,306-30.51,102.24-61.58,338.59-217.74,468-303.75Z"/></g><g class="cls-72"><path class="cls-54" d="M1402.84,1530.3c-9.74-15.78-20.71-33.29-27.48-48.26-8.3-18.33-39.28-39.57-79.49-60.45l-206.59,103.12c98.15,56.17,220,76.91,313.56,5.59"/></g><g class="cls-73"><rect class="cls-74" x="1140.01" y="1265.93" width="513.1" height="309.77"/></g><g class="cls-75"><path class="cls-50" d="M1397.61,1534.29,1653.1,1339.5l-.6-1L1395,1530.38c-66.23,37-190.65,18.91-255-31,52,49.57,183.89,76.32,257.6,34.91"/></g><g class="cls-76"><path class="cls-52" d="M1607.74,1265.93,1140,1499.38s97.19,45.37,217.21-29c72.82-45.12,191.15-117.83,273-168.06Z"/></g><g class="cls-77"><rect class="cls-78" x="651.01" y="1224.94" width="978.89" height="431.2"/></g><g class="cls-79"><path class="cls-50" d="M651,1453c209.62,203.12,360.67,131.32,443.37,93.53l535.52-244.69-.3-.47-537.52,240.14c-24.4,11.15-48.25,21.78-74,29.63-31.85,9.72-64.23,14.67-97.58,13.45-42.37-1.55-82.83-12.89-121-31-50.67-24-107.29-63.57-148.44-100.63"/></g><g class="cls-80"><path class="cls-52" d="M1582.46,1224.94,651,1453c109.54,50.34,222.12,80.43,338.39,42,136.41-45.11,471.12-172,618.75-228.41Z"/></g><g class="cls-81"><path class="cls-54" d="M1266.73,1467.8c-6.67-19.44-14.24-41.06-17.9-58.91-4.49-21.85-32.78-52.41-71.13-84.84L929,1384.94h0c92.37,84.78,219,137.07,337.68,82.86"/></g><g class="cls-82"><rect class="cls-83" x="990.1" y="1224.94" width="639.79" height="272.62"/></g><g class="cls-84"><path class="cls-50" d="M1260.1,1470.83l369.8-169-.38-.61L1258.27,1466c-80.67,23.75-210.77-26.26-268.17-96,44.14,66.34,180.15,127.57,270,100.84"/></g><g class="cls-85"><path class="cls-52" d="M1582.46,1224.94,990.1,1370s94,72.86,242,21.86c101.93-35.12,276-94.35,374.49-127.82Z"/></g><g class="cls-86"><rect class="cls-87" x="471.94" y="1182.01" width="1137.34" height="289.79"/></g><g class="cls-88"><path class="cls-50" d="M471.94,1200.82c176.92,271,357.83,230.35,456.51,209.75l680.83-142.14-.14-.23L927.2,1404.58c-29.13,6.07-57.51,11.72-87.29,13.91-36.82,2.7-73,.11-108.81-9.37-45.43-12-86.4-34.23-123.29-63.12-48.93-38.33-100.45-95-135.87-145.18"/></g><g class="cls-89"><path class="cls-52" d="M1556,1182l-1084,18.81c106.12,81.27,220.48,141.37,355.61,128.29,169.45-16.41,606.65-78.41,757.46-100Z"/></g><g class="cls-90"><path class="cls-54" d="M1134.09,1367.63c-2.44-22.66-5.33-47.89-4.92-68.09.51-24.72-22.6-64.69-56.13-109.15l-283.78,4.93h0c79.12,114.3,203.29,201.86,344.83,172.31"/></g><g class="cls-91"><rect class="cls-92" x="858.95" y="1182.01" width="750.33" height="194.16"/></g><g class="cls-93"><path class="cls-50" d="M1126.18,1369.29l483.1-100.86-.18-.29-483.71,95.45c-93,5.93-221.47-80-266.44-169.48,31.47,82.54,163.53,182.06,267.23,175.18"/></g><g class="cls-94"><path class="cls-52" d="M1556,1182l-697,12.1s83.77,101.8,256.28,82.92c131-14.35,364.1-38.9,468.6-49.87Z"/></g><g class="cls-95"><rect class="cls-96" x="339.41" y="885.26" width="1246.67" height="352.25"/></g><g class="cls-97"><path class="cls-50" d="M1584.64,1237.51l1.45-6.69-.23-.37ZM339.41,885.26C464.33,1221.6,669.89,1222,781.64,1223.88l803,13.63L781.76,1217.1c-33-.56-65.06-1.42-97.78-6.34-40.49-6.09-79-17.77-115.37-36.79-46.16-24.15-85-58.18-117.85-98.46C407.24,1022.09,365.43,948.17,339.41,885.26Z"/></g><g class="cls-98"><path class="cls-52" d="M1525.4,1132.39l-1186-247.13c94.84,113.86,203.76,206.87,353.09,225.83,197.74,25.1,730.85,68.37,868.73,79.4Z"/></g><g class="cls-99"><path class="cls-54" d="M1014.52,1227.84c2.91-25.1,6-53.1,11.35-74.84,6.61-26.6-8.58-75.49-33.95-131.77L683.87,957h0c57.55,143,170.36,268.07,330.65,270.8"/></g><g class="cls-100"><rect class="cls-101" x="759.52" y="972.8" width="826.57" height="264.71"/></g><g class="cls-102"><path class="cls-50" d="M1005.55,1227.68l579.09,9.83-578.53-16.18C904.05,1205,786.24,1080.54,759.52,972.8c13.81,97,132.22,236.93,246,254.88"/></g><g class="cls-103"><path class="cls-52" d="M1525.4,1132.39,759.52,972.8s82.75,132.56,256.8,152.44,455.85,68.62,554.18,80.3Z"/></g><g class="cls-104"><rect class="cls-105" x="272.86" y="520.6" width="1276.53" height="685.92"/></g><g class="cls-106"><path class="cls-50" d="M1533,1206.52l16.38-35.21-1.07-1.72ZM272.86,520.6c52.68,394.27,274.86,445,395.23,474.47L1533,1206.52,669.87,987.76c-35.52-8.68-70-17.46-104.17-30.81-42.28-16.5-81.1-38.56-115.74-68-44-37.43-77.7-83.74-103.31-135.34C312.68,685.17,285.58,595,272.86,520.6Z"/></g><g class="cls-107"><path class="cls-52" d="M1491,1076.67,272.86,520.6C347.51,667,442.51,794.2,599.33,851.28c219.68,80,840.22,273.84,940.94,305.23Z"/></g><g class="cls-108"><path class="cls-54" d="M918.92,1056.39c9.3-26.43,19.46-56,30.61-78.13,13.66-27.15,9.21-83.73-4.43-150.8L627.73,682.58h0c27.2,168.69,118.54,331.59,291.19,373.8"/></g><g class="cls-109"><rect class="cls-110" x="696.85" y="718.16" width="852.55" height="488.36"/></g><g class="cls-111"><path class="cls-50" d="M909.26,1054,1533,1206.52,911.42,1047.3c-106.34-42.72-203.25-206.1-205.75-329.14C696.85,826.39,790.6,1006.73,909.26,1054"/></g><g class="cls-112"><path class="cls-52" d="M1491,1076.67,705.67,718.16S755.92,879.4,946,945.9s516.09,221.4,590.15,247.69Z"/></g><g class="cls-113"><rect class="cls-114" x="252.16" y="120.6" width="1269.14" height="1050.37"/></g><g class="cls-115"><path class="cls-50" d="M1486.34,1171l35-45.22-1.37-2.23ZM291.79,120.6C252.16,559.82,480,669.15,602.91,730.45L1486.34,1171,606.63,723c-36.28-18.1-71.41-36-105.1-58.83C459.86,636,423.3,602.59,393.06,562.24,354.66,511,329.56,452.66,314.5,390.6,294.53,308.3,287.32,204.16,291.79,120.6Z"/></g><g class="cls-116"><path class="cls-50" d="M1520.49,1126.8l.81-1-79.64-129.17L291.79,120.6C336.66,297.13,408.2,458,563.79,558.13,801.3,711,1520.49,1126.8,1520.49,1126.8"/></g><g class="cls-117"><path class="cls-54" d="M859.11,858.21c16.53-26.3,34.74-55.73,52.24-77,21.42-26,30.47-88.28,32.15-164.15L635.83,382.69h0c-11.92,189.06,46.94,387.59,223.28,475.52"/></g><g class="cls-118"><rect class="cls-119" x="675.33" y="440.25" width="845.97" height="730.72"/></g><g class="cls-120"><path class="cls-50" d="M849.25,853.29,1486.34,1171,853.23,846.54C748.71,774.3,683.94,573.9,711.38,440.25c-36,114.86,21.15,332.83,137.87,413"/></g><g class="cls-121"><path class="cls-50" d="M1520.49,1126.8l.81-1-79.64-129.17L711.38,440.25S715,619.88,915.46,745.36s605,381.44,605,381.44"/></g><g class="cls-122"><path class="cls-123" d="M1814.11,1507.6s-167.3,189.3-333.23,82.14-218.37-361.24-198.3-505.8L881.48,569.83,1213.94,823.1l265.77,248.39,66.65,282.34s58.81,115.84,267.75,153.77"/></g><g class="cls-124"><rect class="cls-125" x="1129.88" y="795.76" width="685.66" height="925.17"/></g><g class="cls-126"><path class="cls-127" d="M1212.2,913.8l-82.32-118L1379,975l207,397.65,229.61,134.07c-310.84,87.38-408.36-238-441.91-445.31Z"/></g><g class="cls-128"><path class="cls-129" d="M1815.54,1506.69C1477,1720.93,1338.05,1348,1326.87,1078.25l-186.12-266.9L1335.09,1075l.12,2.94c6.16,148.7,58.32,390.42,205.35,463.46,86.85,43.15,196.85,12.23,275-34.68"/></g><g class="cls-130"><rect class="cls-131" x="881.48" y="569.83" width="934.06" height="1003.48"/></g><g class="cls-132"><path class="cls-50" d="M881.48,569.83,1392.63,1046c40.87,204.61,125.22,527.33,422.91,460.71-297.72,48.3-372.59-251.37-414.73-462.34l-.52-2.64Z"/></g><g class="cls-133"><path class="cls-50" d="M1815.54,1506.69c-115.2-90.58-219.31-235.54-292.37-491.5L881.48,569.83l582.29,462.61c48.93,181.36,111.3,478.28,351.77,474.25"/></g></svg>