<svg id="Layer_1" data-name="Layer 1" xmlns="http://www.w3.org/2000/svg" xmlns:xlink="http://www.w3.org/1999/xlink" viewBox="0 0 2500 1000"><defs><style>.cls-1{fill:url(#linear-gradient);}.cls-2{fill:url(#linear-gradient-2);}.cls-3{fill:url(#linear-gradient-3);}.cls-4{fill:url(#linear-gradient-4);}.cls-5{fill:url(#linear-gradient-5);}.cls-6{fill:url(#linear-gradient-6);}.cls-7{fill:url(#linear-gradient-7);}.cls-8{fill:url(#linear-gradient-8);}.cls-9{fill:url(#linear-gradient-9);}.cls-10{fill:url(#linear-gradient-10);}.cls-11{fill:url(#linear-gradient-11);}.cls-12{fill:url(#linear-gradient-12);}.cls-13{fill:url(#linear-gradient-13);}.cls-14{fill:url(#linear-gradient-14);}.cls-15{fill:url(#linear-gradient-15);}.cls-16{fill:url(#linear-gradient-16);}.cls-17{fill:url(#linear-gradient-17);}.cls-18{fill:url(#linear-gradient-18);}.cls-19{fill:url(#linear-gradient-19);}.cls-20{fill:url(#linear-gradient-20);}.cls-21{fill:url(#linear-gradient-21);}.cls-22{fill:url(#linear-gradient-22);}.cls-23{fill:url(#linear-gradient-23);}.cls-24{fill:url(#linear-gradient-24);}.cls-25{fill:url(#linear-gradient-25);}.cls-26{fill:url(#linear-gradient-26);}.cls-27{fill:url(#linear-gradient-27);}.cls-28{fill:url(#linear-gradient-28);}.cls-29{fill:url(#linear-gradient-29);}.cls-30{fill:url(#linear-gradient-30);}.cls-31{fill:url(#linear-gradient-31);}.cls-32{fill:url(#linear-gradient-32);}.cls-33{fill:url(#linear-gradient-33);}.cls-34{fill:url(#linear-gradient-34);}.cls-35{fill:url(#linear-gradient-35);}.cls-36{fill:url(#linear-gradient-36);}.cls-37{fill:url(#linear-gradient-37);}.cls-38{fill:url(#linear-gradient-38);}.cls-39{fill:url(#linear-gradient-39);}.cls-40{fill:url(#linear-gradient-40);}.cls-41{fill:url(#linear-gradient-41);}.cls-42{fill:url(#linear-gradient-42);}.cls-43{fill:url(#linear-gradient-43);}.cls-44{fill:url(#linear-gradient-44);}.cls-45{fill:url(#linear-gradient-45);}.cls-46{fill:none;clip-rule:evenodd;}.cls-47{clip-path:url(#clip-path);}.cls-48{fill:url(#linear-gradient-46);}.cls-49{mask:url(#mask);}.cls-50{fill:#fef7a2;}.cls-123,.cls-127,.cls-129,.cls-50,.cls-52,.cls-54{fill-rule:evenodd;}.cls-51{mask:url(#mask-2);}.cls-52{fill:#c40015;}.cls-53{mask:url(#mask-3);}.cls-54{fill:#9b0109;}.cls-55{clip-path:url(#clip-path-2);}.cls-56{fill:url(#linear-gradient-47);}.cls-57{mask:url(#mask-4);}.cls-58{mask:url(#mask-5);}.cls-59{clip-path:url(#clip-path-3);}.cls-60{fill:url(#linear-gradient-48);}.cls-61{mask:url(#mask-6);}.cls-62{mask:url(#mask-7);}.cls-63{mask:url(#mask-8);}.cls-64{clip-path:url(#clip-path-4);}.cls-65{fill:url(#linear-gradient-49);}.cls-66{mask:url(#mask-9);}.cls-67{mask:url(#mask-10);}.cls-68{clip-path:url(#clip-path-5);}.cls-69{fill:url(#linear-gradient-50);}.cls-70{mask:url(#mask-11);}.cls-71{mask:url(#mask-12);}.cls-72{mask:url(#mask-13);}.cls-73{clip-path:url(#clip-path-6);}.cls-74{fill:url(#linear-gradient-51);}.cls-75{mask:url(#mask-14);}.cls-76{mask:url(#mask-15);}.cls-77{clip-path:url(#clip-path-7);}.cls-78{fill:url(#linear-gradient-52);}.cls-79{mask:url(#mask-16);}.cls-80{mask:url(#mask-17);}.cls-81{mask:url(#mask-18);}.cls-82{clip-path:url(#clip-path-8);}.cls-83{fill:url(#linear-gradient-53);}.cls-84{mask:url(#mask-19);}.cls-85{mask:url(#mask-20);}.cls-86{clip-path:url(#clip-path-9);}.cls-87{fill:url(#linear-gradient-54);}.cls-88{mask:url(#mask-21);}.cls-89{mask:url(#mask-22);}.cls-90{mask:url(#mask-23);}.cls-91{clip-path:url(#clip-path-10);}.cls-92{fill:url(#linear-gradient-55);}.cls-93{mask:url(#mask-24);}.cls-94{mask:url(#mask-25);}.cls-95{clip-path:url(#clip-path-11);}.cls-96{fill:url(#linear-gradient-56);}.cls-97{mask:url(#mask-26);}.cls-98{mask:url(#mask-27);}.cls-99{mask:url(#mask-28);}.cls-100{clip-path:url(#clip-path-12);}.cls-101{fill:url(#linear-gradient-57);}.cls-102{mask:url(#mask-29);}.cls-103{mask:url(#mask-30);}.cls-104{clip-path:url(#clip-path-13);}.cls-105{fill:url(#linear-gradient-58);}.cls-106{mask:url(#mask-31);}.cls-107{mask:url(#mask-32);}.cls-108{mask:url(#mask-33);}.cls-109{clip-path:url(#clip-path-14);}.cls-110{fill:url(#linear-gradient-59);}.cls-111{mask:url(#mask-34);}.cls-112{mask:url(#mask-35);}.cls-113{clip-path:url(#clip-path-15);}.cls-114{fill:url(#linear-gradient-60);}.cls-115{mask:url(#mask-36);}.cls-116{mask:url(#mask-37);}.cls-117{mask:url(#mask-38);}.cls-118{clip-path:url(#clip-path-16);}.cls-119{fill:url(#linear-gradient-61);}.cls-120{mask:url(#mask-39);}.cls-121{mask:url(#mask-40);}.cls-122{mask:url(#mask-41);}.cls-123{fill:#740107;}.cls-124{clip-path:url(#clip-path-17);}.cls-125{fill:url(#linear-gradient-62);}.cls-126{mask:url(#mask-42);}.cls-127{fill:#1e003d;}.cls-128{mask:url(#mask-43);}.cls-129{fill:#ff8cc8;}.cls-130{clip-path:url(#clip-path-18);}.cls-131{fill:url(#linear-gradient-63);}.cls-132{mask:url(#mask-44);}.cls-133{mask:url(#mask-45);}.cls-134{fill:url(#linear-gradient-64);}.cls-135{fill:url(#linear-gradient-67);}</style><linearGradient id="linear-gradient" x1="145.5" y1="1358.04" x2="449.15" y2="899.69" gradientTransform="translate(239.82 -223.3)" gradientUnits="userSpaceOnUse"><stop offset="0" stop-color="#fff"/><stop offset="1"/></linearGradient><linearGradient id="linear-gradient-2" x1="626.77" y1="637.96" x2="279.99" y2="1115.52" gradientTransform="translate(239.82 -223.5)" xlink:href="#linear-gradient"/><linearGradient id="linear-gradient-3" x1="-173.28" y1="1242.84" x2="406.35" y2="895.34" gradientTransform="translate(209.44 -231.73)" xlink:href="#linear-gradient"/><linearGradient id="linear-gradient-4" x1="737.5" y1="695.19" x2="99.87" y2="1041.13" gradientTransform="translate(209.44 -235.63)" xlink:href="#linear-gradient"/><linearGradient id="linear-gradient-5" x1="505.84" y1="1037.06" x2="232.33" y2="919.99" gradientTransform="translate(225.55 -241.18)" xlink:href="#linear-gradient"/><linearGradient id="linear-gradient-6" x1="-213.87" y1="1297.51" x2="489.47" y2="840.49" gradientTransform="translate(229.08 -242.66)" xlink:href="#linear-gradient"/><linearGradient id="linear-gradient-7" x1="777.74" y1="690.06" x2="229.39" y2="967.68" gradientTransform="translate(229.08 -245.56)" xlink:href="#linear-gradient"/><linearGradient id="linear-gradient-8" x1="-328.67" y1="1124.88" x2="383.13" y2="891.17" gradientTransform="translate(194.99 -240.17)" xlink:href="#linear-gradient"/><linearGradient id="linear-gradient-9" x1="789.59" y1="753.14" x2="15.39" y2="971.02" gradientTransform="translate(194.99 -245.6)" xlink:href="#linear-gradient"/><linearGradient id="linear-gradient-10" x1="449.24" y1="1062.69" x2="182.2" y2="869.1" gradientTransform="translate(214.37 -247.17)" xlink:href="#linear-gradient"/><linearGradient id="linear-gradient-11" x1="-386.06" y1="1172.51" x2="486.35" y2="850.68" gradientTransform="translate(218.63 -248.06)" xlink:href="#linear-gradient"/><linearGradient id="linear-gradient-12" x1="833.27" y1="755.27" x2="172.39" y2="921.08" gradientTransform="translate(218.63 -252.75)" xlink:href="#linear-gradient"/><linearGradient id="linear-gradient-13" x1="577.55" y1="972.4" x2="335.69" y2="982.31" gradientTransform="translate(248.82 -234.98)" xlink:href="#linear-gradient"/><linearGradient id="linear-gradient-14" x1="-472.49" y1="948.54" x2="354.5" y2="870.2" gradientTransform="translate(182.5 -251.66)" xlink:href="#linear-gradient"/><linearGradient id="linear-gradient-15" x1="829.24" y1="832.5" x2="-61.24" y2="878.46" gradientTransform="translate(182.5 -258.26)" xlink:href="#linear-gradient"/><linearGradient id="linear-gradient-16" x1="378.39" y1="1076.02" x2="137.07" y2="801.31" gradientTransform="translate(204.63 -255.3)" xlink:href="#linear-gradient"/><linearGradient id="linear-gradient-17" x1="-546.54" y1="982.75" x2="475.61" y2="848.42" gradientTransform="translate(209.49 -255.56)" xlink:href="#linear-gradient"/><linearGradient id="linear-gradient-18" x1="875.83" y1="841.98" x2="120.6" y2="859.44" gradientTransform="translate(209.49 -261.86)" xlink:href="#linear-gradient"/><linearGradient id="linear-gradient-19" x1="-582.62" y1="682.02" x2="330.75" y2="799.93" gradientTransform="translate(173.26 -264.77)" xlink:href="#linear-gradient"/><linearGradient id="linear-gradient-20" x1="853.98" y1="889.14" x2="-120.15" y2="720.67" gradientTransform="translate(173.26 -268.05)" xlink:href="#linear-gradient"/><linearGradient id="linear-gradient-21" x1="304.83" y1="1066.35" x2="111.18" y2="710.21" gradientTransform="translate(197.28 -265.45)" xlink:href="#linear-gradient"/><linearGradient id="linear-gradient-22" x1="-672.42" y1="716.52" x2="465.77" y2="821.68" gradientTransform="translate(202.55 -264.77)" xlink:href="#linear-gradient"/><linearGradient id="linear-gradient-23" x1="914.13" y1="920.54" x2="79.1" y2="761.5" gradientTransform="translate(202.55 -267)" xlink:href="#linear-gradient"/><linearGradient id="linear-gradient-24" x1="135.95" y1="1412.56" x2="492.03" y2="830.45" gradientTransform="translate(250.8 -237.19)" xlink:href="#linear-gradient"/><linearGradient id="linear-gradient-25" x1="-642.73" y1="392.47" x2="316.01" y2="743.66" gradientTransform="translate(168.62 -266.93)" xlink:href="#linear-gradient"/><linearGradient id="linear-gradient-26" x1="860.42" y1="968.9" x2="-151.58" y2="548.12" gradientTransform="translate(168.62 -270.42)" xlink:href="#linear-gradient"/><linearGradient id="linear-gradient-27" x1="228.64" y1="1040.66" x2="106.57" y2="608.11" gradientTransform="translate(193.36 -277.4)" xlink:href="#linear-gradient"/><linearGradient id="linear-gradient-28" x1="-747.17" y1="415.96" x2="457.71" y2="808.52" gradientTransform="translate(198.76 -266.93)" xlink:href="#linear-gradient"/><linearGradient id="linear-gradient-29" x1="918.66" y1="1012.48" x2="52.11" y2="655.49" gradientTransform="translate(198.8 -267.84)" xlink:href="#linear-gradient"/><linearGradient id="linear-gradient-30" x1="-640.92" y1="67.29" x2="309.71" y2="681.9" gradientTransform="translate(169.62 -269.41)" xlink:href="#linear-gradient"/><linearGradient id="linear-gradient-31" x1="-315.82" y1="33.9" x2="225.83" y2="628.58" gradientTransform="translate(169.94 -272.49)" xlink:href="#linear-gradient"/><linearGradient id="linear-gradient-32" x1="155.18" y1="999.57" x2="129.09" y2="501.9" gradientTransform="translate(193.82 -291.22)" xlink:href="#linear-gradient"/><linearGradient id="linear-gradient-33" x1="-757.56" y1="77.31" x2="449.07" y2="796.91" gradientTransform="translate(198.45 -269.41)" xlink:href="#linear-gradient"/><linearGradient id="linear-gradient-34" x1="-225.21" y1="189.9" x2="382.4" y2="790.38" gradientTransform="translate(199.2 -272.49)" xlink:href="#linear-gradient"/><linearGradient id="linear-gradient-35" x1="654.66" y1="620.15" x2="349.44" y2="1016.22" gradientTransform="translate(250.8 -237.58)" xlink:href="#linear-gradient"/><linearGradient id="linear-gradient-36" x1="-660.57" y1="-342.16" x2="699.25" y2="1154.95" gradientTransform="translate(211.06 -237.92)" xlink:href="#linear-gradient"/><linearGradient id="linear-gradient-37" x1="793.49" y1="1128.45" x2="195.97" y2="654.88" gradientTransform="translate(228.38 -244.99)" xlink:href="#linear-gradient"/><linearGradient id="linear-gradient-38" x1="134.89" y1="582.52" x2="551.19" y2="966.08" gradientTransform="translate(229.14 -241.56)" xlink:href="#linear-gradient"/><linearGradient id="linear-gradient-39" x1="20.78" y1="348.86" x2="547.02" y2="997.24" gradientTransform="translate(211.06 -245.38)" xlink:href="#linear-gradient"/><linearGradient id="linear-gradient-40" x1="100.66" y1="364.27" x2="497.51" y2="981.24" gradientTransform="translate(211.06 -246)" xlink:href="#linear-gradient"/><linearGradient id="linear-gradient-41" x1="-13.04" y1="1319.67" x2="427.6" y2="898.47" gradientTransform="translate(224.71 -226.24)" xlink:href="#linear-gradient"/><linearGradient id="linear-gradient-42" x1="681.6" y1="658.23" x2="189.67" y2="1089.63" gradientTransform="translate(224.71 -228.08)" xlink:href="#linear-gradient"/><linearGradient id="linear-gradient-43" x1="547.83" y1="1005.46" x2="283.93" y2="956.95" gradientTransform="translate(237.28 -237.21)" xlink:href="#linear-gradient"/><linearGradient id="linear-gradient-44" x1="-37.05" y1="1376.4" x2="490.58" y2="834.22" gradientTransform="translate(240.04 -239.09)" xlink:href="#linear-gradient"/><linearGradient id="linear-gradient-45" x1="716.36" y1="645.89" x2="289.36" y2="999.38" gradientTransform="translate(240.04 -240.48)" xlink:href="#linear-gradient"/><clipPath id="clip-path"><path class="cls-46" d="M542.22,845.59c89.75,9.11,112.64-37.23,125.46-62.24l52.07-101.54-22-35.69Z"/></clipPath><linearGradient id="linear-gradient-46" x1="876.79" y1="903.03" x2="-1042.49" y2="-288.62" gradientUnits="userSpaceOnUse"><stop offset="0" stop-color="#ff2966"/><stop offset="1" stop-color="#ff0"/></linearGradient><mask id="mask" x="542.22" y="681.07" width="177.53" height="165.69" maskUnits="userSpaceOnUse"><rect class="cls-1" x="542.22" y="681.07" width="177.53" height="165.68"/></mask><mask id="mask-2" x="542.22" y="646.12" width="167.46" height="199.46" maskUnits="userSpaceOnUse"><rect class="cls-2" x="542.22" y="646.12" width="167.46" height="199.46"/></mask><mask id="mask-3" x="596.62" y="713.42" width="97.78" height="62.81" maskUnits="userSpaceOnUse"><rect class="cls-13" x="596.62" y="713.42" width="97.78" height="62.81"/></mask><clipPath id="clip-path-2"><path class="cls-46" d="M693.38,733.24l26.37-51.43-22-35.69L608.57,760.49c23.41,7.64,68.13-3.56,84.81-27.25"/></clipPath><linearGradient id="linear-gradient-47" x1="862.31" y1="783.59" x2="-136.59" y2="398.15" xlink:href="#linear-gradient-46"/><mask id="mask-4" x="608.57" y="680.85" width="111.18" height="82.02" maskUnits="userSpaceOnUse"><rect class="cls-24" x="608.57" y="680.85" width="111.18" height="82.02"/></mask><mask id="mask-5" x="608.57" y="646.12" width="99.44" height="114.37" maskUnits="userSpaceOnUse"><rect class="cls-35" x="608.57" y="646.12" width="99.44" height="114.37"/></mask><clipPath id="clip-path-3"><path class="cls-46" d="M451,817.92c94.81,31.85,130.91-12.66,150.9-36.56L705.06,658,685.4,626.1Z"/></clipPath><linearGradient id="linear-gradient-48" x1="921.96" y1="951.49" x2="-997.32" y2="-240.16" xlink:href="#linear-gradient-46"/><mask id="mask-6" x="450.95" y="657.51" width="254.12" height="171.5" maskUnits="userSpaceOnUse"><rect class="cls-41" x="450.95" y="657.51" width="254.12" height="171.5"/></mask><mask id="mask-7" x="450.95" y="626.09" width="245.11" height="191.83" maskUnits="userSpaceOnUse"><rect class="cls-42" x="450.95" y="626.09" width="245.11" height="191.83"/></mask><mask id="mask-8" x="526.86" y="700.26" width="116.65" height="62.49" maskUnits="userSpaceOnUse"><rect class="cls-43" x="526.86" y="700.26" width="116.65" height="62.49"/></mask><clipPath id="clip-path-4"><path class="cls-46" d="M641.91,733.48,705.06,658,685.4,626.1,543.53,742.17c23.45,14,74.54,12.84,98.38-8.69"/></clipPath><linearGradient id="linear-gradient-49" x1="863.49" y1="783.42" x2="-135.41" y2="397.99" xlink:href="#linear-gradient-46"/><mask id="mask-9" x="543.53" y="657.36" width="161.53" height="94.04" maskUnits="userSpaceOnUse"><rect class="cls-44" x="543.53" y="657.36" width="161.53" height="94.04"/></mask><mask id="mask-10" x="543.53" y="626.1" width="151.33" height="116.93" maskUnits="userSpaceOnUse"><rect class="cls-45" x="543.53" y="626.1" width="151.33" height="116.93"/></mask><clipPath id="clip-path-5"><path class="cls-46" d="M358.71,765.79c94.72,57.66,144.66,18.38,172.13-2.56l162.65-124-19.11-31Z"/></clipPath><linearGradient id="linear-gradient-50" x1="916.26" y1="958.09" x2="-1003.01" y2="-233.56" xlink:href="#linear-gradient-46"/><mask id="mask-11" x="358.71" y="638.9" width="334.78" height="156.96" maskUnits="userSpaceOnUse"><rect class="cls-3" x="358.71" y="638.9" width="334.78" height="156.96"/></mask><mask id="mask-12" x="358.71" y="608.23" width="326.02" height="164.04" maskUnits="userSpaceOnUse"><rect class="cls-4" x="358.71" y="608.23" width="326.02" height="164.04"/></mask><mask id="mask-13" x="456.01" y="673.79" width="132.07" height="64.96" maskUnits="userSpaceOnUse"><rect class="cls-5" x="456.01" y="673.79" width="132.07" height="64.96"/></mask><clipPath id="clip-path-6"><path class="cls-46" d="M585.88,721.26l107.61-82-19.11-31-197,98.33c21.92,20.88,77.45,32.15,108.5,14.7"/></clipPath><linearGradient id="linear-gradient-51" x1="863.68" y1="780.83" x2="-135.23" y2="395.39" xlink:href="#linear-gradient-46"/><mask id="mask-14" x="477.38" y="638.81" width="216.11" height="91.04" maskUnits="userSpaceOnUse"><rect class="cls-6" x="477.38" y="638.81" width="216.11" height="91.04"/></mask><mask id="mask-15" x="477.38" y="608.23" width="206.46" height="104.1" maskUnits="userSpaceOnUse"><rect class="cls-7" x="477.38" y="608.23" width="206.46" height="104.1"/></mask><clipPath id="clip-path-7"><path class="cls-46" d="M271.41,687c88.3,85.55,151.92,55.31,186.75,39.39L683.72,623.37l-20-32.4Z"/></clipPath><linearGradient id="linear-gradient-52" x1="975.32" y1="990.83" x2="-943.9" y2="-200.82" xlink:href="#linear-gradient-46"/><mask id="mask-16" x="271.41" y="623.17" width="412.3" height="121.69" maskUnits="userSpaceOnUse"><rect class="cls-8" x="271.41" y="623.17" width="412.3" height="121.69"/></mask><mask id="mask-17" x="271.41" y="590.97" width="403.15" height="121.1" maskUnits="userSpaceOnUse"><rect class="cls-9" x="271.41" y="590.97" width="403.14" height="121.1"/></mask><mask id="mask-18" x="388.52" y="632.71" width="142.23" height="69.86" maskUnits="userSpaceOnUse"><rect class="cls-10" x="388.52" y="632.71" width="142.23" height="69.86"/></mask><clipPath id="clip-path-8"><path class="cls-46" d="M528,694.54l155.76-71.17-20-32.4-249.5,61.09C432.83,680,490.12,705.79,528,694.54"/></clipPath><linearGradient id="linear-gradient-53" x1="856.83" y1="767.15" x2="-142.07" y2="381.77" xlink:href="#linear-gradient-46"/><mask id="mask-19" x="414.24" y="623.11" width="269.48" height="74.13" maskUnits="userSpaceOnUse"><rect class="cls-11" x="414.24" y="623.11" width="269.48" height="74.13"/></mask><mask id="mask-20" x="414.24" y="590.97" width="259.65" height="77.94" maskUnits="userSpaceOnUse"><rect class="cls-12" x="414.24" y="590.97" width="259.65" height="77.94"/></mask><clipPath id="clip-path-9"><path class="cls-46" d="M196,580.81c74.52,114.13,150.72,97,192.28,88.34L675,609.28l-22.44-36.4Z"/></clipPath><linearGradient id="linear-gradient-54" x1="995.57" y1="981.63" x2="-923.65" y2="-209.95" xlink:href="#linear-gradient-46"/><mask id="mask-21" x="195.99" y="580.81" width="479.04" height="94.69" maskUnits="userSpaceOnUse"><rect class="cls-14" x="195.99" y="580.81" width="479.04" height="94.69"/></mask><mask id="mask-22" x="195.99" y="572.88" width="468.82" height="62.72" maskUnits="userSpaceOnUse"><rect class="cls-15" x="195.99" y="572.88" width="468.82" height="62.72"/></mask><mask id="mask-23" x="329.65" y="576.42" width="145.24" height="77.09" maskUnits="userSpaceOnUse"><rect class="cls-16" x="329.65" y="576.42" width="145.24" height="77.09"/></mask><clipPath id="clip-path-10"><path class="cls-46" d="M471.55,651.76,675,609.28l-22.44-36.4L359,578c13.26,34.77,68.88,76.68,112.55,73.78"/></clipPath><linearGradient id="linear-gradient-55" x1="857.79" y1="745.24" x2="-141.17" y2="359.86" xlink:href="#linear-gradient-46"/><mask id="mask-24" x="359" y="577.98" width="316.04" height="73.93" maskUnits="userSpaceOnUse"><rect class="cls-17" x="359" y="577.98" width="316.04" height="73.93"/></mask><mask id="mask-25" x="359" y="572.88" width="305.32" height="41.01" maskUnits="userSpaceOnUse"><rect class="cls-18" x="359" y="572.88" width="305.32" height="41.01"/></mask><clipPath id="clip-path-11"><path class="cls-46" d="M140.17,447.9c52.62,141.66,139.2,141.82,186.27,142.62l338.22,5.74.6-2.82L639.7,552Z"/></clipPath><linearGradient id="linear-gradient-56" x1="1042.37" y1="919.21" x2="-876.91" y2="-272.38" xlink:href="#linear-gradient-46"/><mask id="mask-26" x="140.17" y="447.9" width="525.09" height="148.37" maskUnits="userSpaceOnUse"><rect class="cls-19" x="140.17" y="447.9" width="525.09" height="148.37"/></mask><mask id="mask-27" x="140.17" y="447.9" width="514.62" height="128.56" maskUnits="userSpaceOnUse"><rect class="cls-20" x="140.17" y="447.9" width="514.62" height="128.56"/></mask><mask id="mask-28" x="285.26" y="478.13" width="144.7" height="114.06" maskUnits="userSpaceOnUse"><rect class="cls-21" x="285.26" y="478.13" width="144.7" height="114.06"/></mask><clipPath id="clip-path-12"><path class="cls-46" d="M420.75,592.12l243.91,4.14.6-2.82L639.7,552,317.12,484.77c5.82,40.84,55.69,99.79,103.63,107.35"/></clipPath><linearGradient id="linear-gradient-57" x1="885.53" y1="692.68" x2="-113.37" y2="307.24" xlink:href="#linear-gradient-46"/><mask id="mask-29" x="317.12" y="484.77" width="347.54" height="111.49" maskUnits="userSpaceOnUse"><rect class="cls-22" x="317.12" y="484.77" width="347.54" height="111.49"/></mask><mask id="mask-30" x="317.12" y="484.77" width="341.58" height="98.03" maskUnits="userSpaceOnUse"><rect class="cls-23" x="317.12" y="484.77" width="341.58" height="98.03"/></mask><clipPath id="clip-path-13"><path class="cls-46" d="M112.14,294.3c22.19,166.07,115.77,187.45,166.47,199.85l364.3,89.06,6.9-14.83-24.58-39.87Z"/></clipPath><linearGradient id="linear-gradient-58" x1="1089.6" y1="878.73" x2="-829.68" y2="-312.92" xlink:href="#linear-gradient-46"/><mask id="mask-31" x="112.14" y="294.3" width="537.67" height="288.91" maskUnits="userSpaceOnUse"><rect class="cls-25" x="112.14" y="294.3" width="537.67" height="288.91"/></mask><mask id="mask-32" x="112.14" y="294.3" width="533.83" height="267.84" maskUnits="userSpaceOnUse"><rect class="cls-26" x="112.14" y="294.3" width="533.83" height="267.84"/></mask><mask id="mask-33" x="261.61" y="362.53" width="139.03" height="157.45" maskUnits="userSpaceOnUse"><rect class="cls-27" x="261.61" y="362.53" width="139.03" height="157.45"/></mask><clipPath id="clip-path-14"><path class="cls-46" d="M380.19,519l262.72,64.23,6.9-14.83-24.58-39.86-330.79-151C290.72,423.1,330.21,499.06,380.19,519"/></clipPath><linearGradient id="linear-gradient-59" x1="912.84" y1="651.1" x2="-86.12" y2="265.72" xlink:href="#linear-gradient-46"/><mask id="mask-34" x="294.19" y="377.52" width="348.72" height="205.69" maskUnits="userSpaceOnUse"><rect class="cls-28" x="294.19" y="377.52" width="348.72" height="205.69"/></mask><mask id="mask-35" x="294.44" y="377.52" width="349.8" height="200.25" maskUnits="userSpaceOnUse"><rect class="cls-29" x="294.44" y="377.52" width="349.8" height="200.25"/></mask><clipPath id="clip-path-15"><path class="cls-46" d="M120.11,125.83c-16.69,185,79.26,231,131.05,256.86L623.25,568.23l14.73-19-33.55-54.41Z"/></clipPath><linearGradient id="linear-gradient-60" x1="1220.24" y1="874.47" x2="-699.03" y2="-317.12" xlink:href="#linear-gradient-46"/><mask id="mask-36" x="118.19" y="125.83" width="519.79" height="442.41" maskUnits="userSpaceOnUse"><rect class="cls-30" x="118.19" y="125.83" width="519.79" height="442.41"/></mask><mask id="mask-37" x="120.11" y="125.83" width="517.87" height="423.81" maskUnits="userSpaceOnUse"><rect class="cls-31" x="120.11" y="125.83" width="517.87" height="423.81"/></mask><mask id="mask-38" x="264.4" y="236.22" width="130.21" height="200.29" maskUnits="userSpaceOnUse"><rect class="cls-32" x="264.4" y="236.22" width="130.21" height="200.29"/></mask><clipPath id="clip-path-16"><path class="cls-46" d="M354.91,434.43l268.34,133.8,14.73-19-33.55-54.41L296.84,260.46c-15.18,48.38,8.91,140.19,58.07,174"/></clipPath><linearGradient id="linear-gradient-61" x1="967.42" y1="610.21" x2="-31.49" y2="224.77" xlink:href="#linear-gradient-46"/><mask id="mask-39" x="292.33" y="260.46" width="330.92" height="307.78" maskUnits="userSpaceOnUse"><rect class="cls-33" x="292.33" y="260.46" width="330.92" height="307.78"/></mask><mask id="mask-40" x="296.84" y="260.46" width="341.14" height="289.17" maskUnits="userSpaceOnUse"><rect class="cls-34" x="296.84" y="260.46" width="341.14" height="289.17"/></mask><mask id="mask-41" x="368.49" y="315.04" width="392.82" height="443.42" maskUnits="userSpaceOnUse"><rect class="cls-36" x="368.49" y="315.04" width="392.82" height="443.42"/></mask><clipPath id="clip-path-17"><path class="cls-46" d="M761.91,709.64C619.3,799.88,560.79,642.81,556.09,529.18l-83-119L578,485.68,665.2,653.17Z"/></clipPath><linearGradient id="linear-gradient-62" x1="870.77" y1="917.31" x2="487.68" y2="444.95" gradientUnits="userSpaceOnUse"><stop offset="0" stop-color="#5e17a9"/><stop offset="1" stop-color="#ff2966"/></linearGradient><mask id="mask-42" x="473.11" y="410.2" width="288.8" height="305.58" maskUnits="userSpaceOnUse"><rect class="cls-37" x="473.11" y="410.2" width="288.8" height="305.58"/></mask><mask id="mask-43" x="477.69" y="416.77" width="284.22" height="319.7" maskUnits="userSpaceOnUse"><rect class="cls-38" x="477.69" y="416.77" width="284.22" height="319.7"/></mask><clipPath id="clip-path-18"><path class="cls-46" d="M761.91,709.64c-48.52-38.15-92.37-99.21-123.15-207L368.49,315,583.78,515.59c17.22,86.18,52.74,222.11,178.13,194"/></clipPath><linearGradient id="linear-gradient-63" x1="872.6" y1="953.8" x2="345.39" y2="220.74" xlink:href="#linear-gradient-46"/><mask id="mask-44" x="368.49" y="315.04" width="393.42" height="398.35" maskUnits="userSpaceOnUse"><rect class="cls-39" x="368.49" y="315.04" width="393.42" height="398.35"/></mask><mask id="mask-45" x="368.49" y="315.04" width="393.42" height="394.62" maskUnits="userSpaceOnUse"><rect class="cls-40" x="368.49" y="315.04" width="393.42" height="394.62"/></mask><linearGradient id="linear-gradient-64" x1="769.32" y1="576.38" x2="2538.04" y2="576.38" xlink:href="#linear-gradient-46"/><linearGradient id="linear-gradient-67" x1="769.32" y1="576.06" x2="2538.04" y2="576.06" xlink:href="#linear-gradient-46"/></defs><g class="cls-47"><rect class="cls-48" x="542.22" y="646.12" width="177.53" height="208.58"/></g><g class="cls-49"><path class="cls-50" d="M542.22,845.59c89.75,9.11,112.64-37.23,125.46-62.24l52.07-101.54-.45-.74-53.14,101.5a183,183,0,0,1-12.27,21.36,91.14,91.14,0,0,1-21.1,22,95.24,95.24,0,0,1-35.29,15.67c-16.88,3.9-38.2,5.13-55.28,4"/></g><g class="cls-51"><path class="cls-52" d="M697.75,646.12,542.22,845.59c36.21-8.77,69.28-23,90.12-54.64,17.2-26.06,50.43-80.73,77.34-125.48Z"/></g><g class="cls-53"><path class="cls-54" d="M694.41,731.24c-5.34-3.44-11.33-7.24-15.63-10.87-5.27-4.44-18-6.43-33.5-7l-48.66,62.4h0c38.64,2.87,79.38-8.71,97.78-44.58"/></g><g class="cls-55"><rect class="cls-56" x="608.57" y="646.12" width="111.18" height="122.01"/></g><g class="cls-57"><path class="cls-50" d="M693.38,733.24l26.37-51.43-.59-1L692,732.41c-15,21.22-56.16,34-83.44,28.08,23.41,7.64,68.13-3.56,84.81-27.25"/></g><g class="cls-58"><path class="cls-52" d="M697.75,646.12,608.57,760.49s36.75-.32,62.88-41c9.79-15.25,23.38-36.3,36.56-56.69Z"/></g><g class="cls-59"><rect class="cls-60" x="450.95" y="626.1" width="254.11" height="223.67"/></g><g class="cls-61"><path class="cls-50" d="M451,817.92c94.81,31.85,130.91-12.66,150.9-36.56L705.06,658l-.29-.47L600.4,780.15c-5.9,7.05-11.71,13.86-18.51,20.09a101,101,0,0,1-28.19,18.57c-13.32,5.78-27.51,8.25-42,8.31-19.2.07-42.56-3.82-60.75-9.2"/></g><g class="cls-62"><path class="cls-52" d="M685.4,626.1,451,817.92c41.3-.61,80.55-7.93,110.83-37C591.11,752.77,654,687.4,696.06,643.38Z"/></g><g class="cls-63"><path class="cls-54" d="M643.51,731.56c-4.93-5-10.47-10.59-14.23-15.58-4.62-6.09-17.88-11.36-34.53-15.72l-67.89,55.55c41.09,12.57,88,10,116.65-24.25"/></g><g class="cls-64"><rect class="cls-65" x="543.53" y="626.1" width="161.53" height="130.07"/></g><g class="cls-66"><path class="cls-50" d="M641.91,733.48,705.06,658l-.38-.62-64,74.88c-21.44,19.27-69,23-97.1,9.93,23.45,14,74.54,12.84,98.38-8.69"/></g><g class="cls-67"><path class="cls-52" d="M685.4,626.1,543.53,742.17s39.82,8.65,78.05-29c19.37-19.06,48.87-47.91,73.28-71.75Z"/></g><g class="cls-68"><rect class="cls-69" x="358.71" y="608.23" width="334.78" height="215.22"/></g><g class="cls-70"><path class="cls-50" d="M358.71,765.79c94.72,57.66,144.66,18.38,172.13-2.56l162.65-124-.19-.32L529.57,761.56c-8.11,6.18-16.06,12.12-24.94,17.19a112,112,0,0,1-35,13.18c-15.82,3-31.77,2.17-47.45-1.31-20.78-4.63-45.08-14.55-63.44-24.83"/></g><g class="cls-71"><path class="cls-52" d="M674.38,608.23,358.71,765.79c44.81,9.46,89.05,11.16,128.9-12.85C530.67,727,630.22,661.23,684.73,625Z"/></g><g class="cls-72"><path class="cls-54" d="M588.08,719.58c-4.1-6.64-8.72-14-11.57-20.32C573,691.54,560,682.59,543,673.79l-87,43.44c41.34,23.66,92.67,32.39,132.07,2.35"/></g><g class="cls-73"><rect class="cls-74" x="477.38" y="608.23" width="216.11" height="130.47"/></g><g class="cls-75"><path class="cls-50" d="M585.88,721.26l107.61-82-.25-.41L584.8,719.62c-27.9,15.57-80.31,8-107.42-13.06,21.92,20.88,77.45,32.15,108.5,14.7"/></g><g class="cls-76"><path class="cls-52" d="M674.38,608.23l-197,98.33s40.94,19.11,91.49-12.21c30.67-19,80.51-49.63,115-70.78Z"/></g><g class="cls-77"><rect class="cls-78" x="271.41" y="590.97" width="412.3" height="181.62"/></g><g class="cls-79"><path class="cls-50" d="M271.41,687c88.3,85.55,151.92,55.31,186.75,39.39L683.72,623.37l-.13-.2L457.19,724.31c-10.27,4.7-20.32,9.18-31.17,12.48a124.16,124.16,0,0,1-41.1,5.67c-17.84-.65-34.88-5.43-51-13-21.35-10.09-45.19-26.78-62.53-42.38"/></g><g class="cls-80"><path class="cls-52" d="M663.74,591,271.41,687c46.14,21.2,93.56,33.87,142.53,17.68,57.46-19,198.44-72.47,260.62-96.2Z"/></g><g class="cls-81"><path class="cls-54" d="M530.75,693.26c-2.8-8.19-6-17.3-7.54-24.82-1.89-9.2-13.8-22.07-30-35.73L388.52,658.36h0c38.91,35.71,92.27,57.73,142.23,34.9"/></g><g class="cls-82"><rect class="cls-83" x="414.24" y="590.97" width="269.48" height="114.83"/></g><g class="cls-84"><path class="cls-50" d="M528,694.54l155.76-71.17-.16-.26L527.19,692.49c-34,10-88.78-11.06-113-40.43C432.83,680,490.12,705.79,528,694.54"/></g><g class="cls-85"><path class="cls-52" d="M663.74,591l-249.5,61.09s39.59,30.69,101.92,9.21c42.93-14.79,116.25-39.74,157.73-53.84Z"/></g><g class="cls-86"><rect class="cls-87" x="195.99" y="572.88" width="479.04" height="122.06"/></g><g class="cls-88"><path class="cls-50" d="M196,580.81c74.52,114.13,150.72,97,192.28,88.34L675,609.28l0-.09L387.74,666.63c-12.26,2.56-24.22,4.94-36.76,5.86a137.67,137.67,0,0,1-45.83-4C286,663.47,268.76,654.12,253.22,642c-20.61-16.15-42.31-40-57.23-61.15"/></g><g class="cls-89"><path class="cls-52" d="M652.59,572.88,196,580.81c44.7,34.23,92.87,59.54,149.79,54,71.37-6.91,255.51-33,319-42.13Z"/></g><g class="cls-90"><path class="cls-54" d="M474.89,651.07c-1-9.55-2.25-20.17-2.08-28.68.22-10.41-9.52-27.25-23.64-46l-119.52,2.07h0c33.32,48.14,85.62,85,145.24,72.58"/></g><g class="cls-91"><rect class="cls-92" x="359" y="572.88" width="316.04" height="81.78"/></g><g class="cls-93"><path class="cls-50" d="M471.55,651.76,675,609.28l-.07-.12L471.22,649.37C432,651.86,377.94,615.66,359,578c13.26,34.77,68.88,76.68,112.55,73.78"/></g><g class="cls-94"><path class="cls-52" d="M652.59,572.88,359,578s35.28,42.88,107.94,34.93c55.19-6,153.36-16.39,197.37-21Z"/></g><g class="cls-95"><rect class="cls-96" x="140.17" y="447.9" width="525.09" height="148.37"/></g><g class="cls-97"><path class="cls-50" d="M664.66,596.26l.6-2.82-.09-.15ZM140.17,447.9c52.62,141.66,139.2,141.82,186.27,142.62l338.22,5.74-338.17-8.6c-13.89-.23-27.41-.59-41.19-2.66a152.88,152.88,0,0,1-48.59-15.5C217.27,559.33,200.89,545,187.07,528,168.74,505.53,151.13,474.39,140.17,447.9Z"/></g><g class="cls-98"><path class="cls-52" d="M639.7,552,140.17,447.9c40,48,85.83,87.13,148.72,95.12,83.29,10.57,307.83,28.79,365.9,33.44Z"/></g><g class="cls-99"><path class="cls-54" d="M424.52,592.19c1.23-10.57,2.52-22.37,4.79-31.52,2.78-11.21-3.62-31.8-14.3-55.5l-129.75-27h0C309.49,538.35,357,591,424.52,592.19"/></g><g class="cls-100"><rect class="cls-101" x="317.12" y="484.77" width="348.15" height="111.49"/></g><g class="cls-102"><path class="cls-50" d="M420.75,592.12l243.91,4.14L421,589.45c-43-6.9-92.61-59.3-103.86-104.68,5.82,40.84,55.69,99.79,103.63,107.35"/></g><g class="cls-103"><path class="cls-52" d="M639.7,552,317.12,484.77S352,540.6,425.28,549s192,28.91,233.42,33.83Z"/></g><g class="cls-104"><rect class="cls-105" x="112.14" y="294.3" width="537.67" height="288.91"/></g><g class="cls-106"><path class="cls-50" d="M642.91,583.21l6.9-14.83-.45-.73ZM112.14,294.3c22.19,166.07,115.77,187.45,166.47,199.85l364.3,89.06L279.36,491.07c-15-3.66-29.48-7.36-43.88-13a169.28,169.28,0,0,1-48.74-28.65c-18.54-15.77-32.73-35.27-43.52-57C128.91,363.62,117.5,325.64,112.14,294.3Z"/></g><g class="cls-107"><path class="cls-52" d="M625.23,528.51,112.14,294.3c31.44,61.64,71.46,115.24,137.51,139.28C342.18,467.26,603.54,548.92,646,562.15Z"/></g><g class="cls-108"><path class="cls-54" d="M384.26,520c3.91-11.14,8.19-23.57,12.89-32.91,5.75-11.44,3.88-35.27-1.87-63.52l-133.67-61h0C273.07,433.58,311.54,502.2,384.26,520"/></g><g class="cls-109"><rect class="cls-110" x="290.72" y="377.52" width="359.09" height="205.69"/></g><g class="cls-111"><path class="cls-50" d="M380.19,519l262.72,64.23L381.1,516.15c-44.79-18-85.61-86.81-86.66-138.63C290.72,423.1,330.21,499.06,380.19,519"/></g><g class="cls-112"><path class="cls-52" d="M625.23,528.52l-330.79-151s21.16,67.91,101.22,95.92S613,566.69,644.23,577.76Z"/></g><g class="cls-113"><rect class="cls-114" x="103.42" y="125.83" width="534.56" height="442.41"/></g><g class="cls-115"><path class="cls-50" d="M623.25,568.23l14.73-19-.58-.94ZM120.11,125.83c-16.69,185,79.26,231,131.05,256.86L623.25,568.23,252.72,379.55c-15.28-7.62-30.08-15.18-44.26-24.78a187.64,187.64,0,0,1-45.69-42.93c-16.18-21.58-26.75-46.15-33.09-72.29C121.27,204.88,118.23,161,120.11,125.83Z"/></g><g class="cls-116"><path class="cls-50" d="M637.64,549.63l.34-.44-33.55-54.41L120.11,125.83c18.9,74.35,49,142.1,114.57,184.28,100,64.38,403,239.52,403,239.52"/></g><g class="cls-117"><path class="cls-54" d="M359.07,436.5c7-11.08,14.63-23.47,22-32.43,9-10.95,12.83-37.18,13.54-69.13L265,236.22h0c-5,79.63,19.77,163.25,94.05,200.28"/></g><g class="cls-118"><rect class="cls-119" x="281.66" y="260.46" width="356.32" height="307.77"/></g><g class="cls-120"><path class="cls-50" d="M354.91,434.43l268.34,133.8L356.59,431.59c-44-30.43-71.3-114.84-59.75-171.13-15.18,48.38,8.91,140.19,58.07,174"/></g><g class="cls-121"><path class="cls-50" d="M637.64,549.63l.34-.44-33.55-54.41L296.84,260.46s1.53,75.66,86,128.51S637.64,549.63,637.64,549.63"/></g><g class="cls-122"><path class="cls-123" d="M761.31,710S690.84,789.75,621,744.62s-92-152.15-83.52-213L368.49,315l140,106.67L620.46,526.34l28.07,118.92S673.3,694.05,761.31,710"/></g><g class="cls-124"><rect class="cls-125" x="473.11" y="410.2" width="288.79" height="389.68"/></g><g class="cls-126"><path class="cls-127" d="M507.78,459.92,473.11,410.2,578,485.68,665.2,653.17l96.71,56.47C631,746.44,589.91,609.4,575.78,522.08Z"/></g><g class="cls-128"><path class="cls-129" d="M761.91,709.64C619.3,799.88,560.79,642.81,556.09,529.18l-78.4-112.41,81.85,111,.06,1.24c2.59,62.63,24.56,164.44,86.49,195.21,36.58,18.17,82.91,5.15,115.82-14.61"/></g><g class="cls-130"><rect class="cls-131" x="368.49" y="315.04" width="393.42" height="422.66"/></g><g class="cls-132"><path class="cls-50" d="M368.49,315,583.78,515.59c17.22,86.18,52.74,222.11,178.13,194C636.51,730,605,603.76,587.23,514.9l-.22-1.11Z"/></g><g class="cls-133"><path class="cls-50" d="M761.91,709.64c-48.52-38.15-92.37-99.21-123.15-207L368.49,315,613.74,509.89c20.61,76.39,46.89,201.45,148.17,199.75"/></g><path class="cls-134" d="M984,625.14H927.74l-9,26.63H880.27L934.83,501h42.52l54.56,150.77H993Zm-9.45-28.35-18.69-55.2-18.47,55.2Z"/><path class="cls-134" d="M1106.65,530.42v30.5h49.18v28.35h-49.18v33.08h55.63v29.42h-92.36V501h92.36v29.42Z"/><path class="cls-134" d="M1284.48,651.77l-31.35-56.91h-8.81v56.91h-36.73V501h61.64q17.83,0,30.4,6.23t18.79,17.07a47.68,47.68,0,0,1,6.23,24.16,44.84,44.84,0,0,1-8.49,26.85q-8.48,11.82-25,16.75l34.8,59.71Zm-40.16-82.9h22.77q10.08,0,15.14-4.94t5-14q0-8.6-5-13.53t-15.14-5h-22.77Z"/><path class="cls-135" d="M1401.43,643.4a74,74,0,0,1-28.14-27.6q-10.41-17.73-10.41-39.85t10.41-39.73a74.19,74.19,0,0,1,28.14-27.49,81.83,81.83,0,0,1,78,0,72.6,72.6,0,0,1,27.93,27.49q10.2,17.61,10.2,39.73t-10.31,39.85a73.33,73.33,0,0,1-27.92,27.6,81.64,81.64,0,0,1-77.86,0Zm67.87-35.66q10.85-12,10.85-31.79,0-20-10.85-31.89t-28.89-11.92q-18.26,0-29.1,11.81t-10.85,32q0,20,10.85,31.9t29.1,11.92Q1458.46,619.77,1469.3,607.74Z"/><path class="cls-135" d="M1562.84,536.33a69.06,69.06,0,0,1,27-27.28q17.28-9.76,39.2-9.77,26.84,0,46,14.17t25.56,38.66h-40.38a32.68,32.68,0,0,0-12.78-14.39,36,36,0,0,0-18.79-4.94q-17,0-27.49,11.82t-10.53,31.57q0,19.76,10.53,31.57t27.49,11.82a35.87,35.87,0,0,0,18.79-4.95,32.58,32.58,0,0,0,12.78-14.39h40.38q-6.45,24.49-25.56,38.56t-46,14.07q-21.91,0-39.2-9.78a69.17,69.17,0,0,1-27-27.17q-9.67-17.4-9.67-39.73T1562.84,536.33Z"/><path class="cls-134" d="M1875.12,501V651.77H1838.4V589.7h-57.13v62.07h-36.73V501h36.73v59.06h57.13V501Z"/><path class="cls-134" d="M2016.88,625.14H1960.6l-9,26.63h-38.44L1967.69,501h42.53l54.55,150.77H2025.9Zm-9.45-28.35-18.69-55.2-18.47,55.2Z"/><path class="cls-134" d="M2139.52,501V651.77h-36.73V501Z"/><path class="cls-134" d="M2322.51,651.77h-36.73l-61.43-93v93h-36.72V501h36.72l61.43,93.43V501h36.73Z"/></svg>